<svg xmlns="http://www.w3.org/2000/svg" width="628.607" height="1381" viewBox="0 0 628.607 1381">
  <g id="Group_359" data-name="Group 359" transform="translate(-843.677 -1179)">
    <rect id="Rectangle_151" data-name="Rectangle 151" width="628" height="1310" rx="55" transform="translate(844 1230)" fill="none"/>
    <rect id="Rectangle_152" data-name="Rectangle 152" width="628" height="305" transform="translate(844 1179)" fill="#ff631c"/>
    <path id="Rectangle_156" data-name="Rectangle 156" d="M0,0H628a0,0,0,0,1,0,0V1022a55,55,0,0,1-55,55H55a55,55,0,0,1-55-55V0A0,0,0,0,1,0,0Z" transform="translate(844 1483)" fill="#fff"/>
    <path id="Rectangle_154" data-name="Rectangle 154" d="M0,0H628a0,0,0,0,1,0,0V950a55,55,0,0,1-55,55H55A55,55,0,0,1,0,950V0A0,0,0,0,1,0,0Z" transform="translate(844 1535)" fill="none"/>
    <path id="Path_113" data-name="Path 113" d="M10726.579,1365.823l-18.183,16.043,25.67,9.626Z" transform="translate(-9462 -137)" fill="#ffeac2"/>
    <path id="Path_114" data-name="Path 114" d="M10795.031,1434.275l8.556-6.417,3.948,6.417Z" transform="translate(-9462 -137)" fill="#fff"/>
    <path id="Path_115" data-name="Path 115" d="M10306,1554.493s51.259,4.171,66.554,65.35" transform="translate(-9462 -137)" fill="none" stroke="#fff" stroke-width="3"/>
    <path id="Path_116" data-name="Path 116" d="M10306,1587.167s22.061,4.867,19.279,32.675" transform="translate(-9462 -137)" fill="none" stroke="#fff" stroke-width="3"/>
    <path id="Path_117" data-name="Path 117" d="M10546,1619.843s51.8-58.4,112.98,0C10660.371,1621.233,10546,1619.843,10546,1619.843Z" transform="translate(-9462 -137)" fill="#ffc045"/>
    <path id="Path_118" data-name="Path 118" d="M10850.859,1619.843l52.836-88.987h30.589v88.987Z" transform="translate(-9462 -137)" fill="#ffd78a"/>
  </g>
</svg>
